<svg width="13" height="18" viewBox="0 0 13 18" fill="none" xmlns="http://www.w3.org/2000/svg">
<path d="M6.31463 0C7.98937 0 9.59552 0.66529 10.7797 1.84951C11.964 3.03374 12.6293 4.63988 12.6293 6.31463C12.6293 9.35594 7.82827 16.1626 6.59902 17.8559C6.56626 17.9006 6.52345 17.9369 6.47404 17.9619C6.42463 17.987 6.37002 18 6.31463 18C6.25924 18 6.20463 17.987 6.15522 17.9619C6.10581 17.9369 6.063 17.9006 6.03024 17.8559C4.80099 16.1626 0 9.35594 0 6.31463C0 4.63988 0.66529 3.03374 1.84951 1.84951C3.03374 0.66529 4.63989 0 6.31463 0Z" fill="#3B4076"/>
<path d="M6.31468 9.12131C7.86467 9.12131 9.12118 7.86479 9.12118 6.3148C9.12118 4.76482 7.86467 3.5083 6.31468 3.5083C4.76469 3.5083 3.50818 4.76482 3.50818 6.3148C3.50818 7.86479 4.76469 9.12131 6.31468 9.12131Z" fill="#FCFCFC" stroke="#FCFCFC" stroke-width="1.25" stroke-linecap="round" stroke-linejoin="round"/>
</svg>
