<svg width="24" height="24" viewBox="0 0 24 24" fill="none" xmlns="http://www.w3.org/2000/svg">
<path d="M17.6125 15.5171C19.0649 13.5352 19.7154 11.0779 19.4339 8.63685C19.1524 6.19584 17.9596 3.95114 16.0941 2.35182C14.2286 0.752509 11.8281 -0.0834673 9.37271 0.0111424C6.91734 0.105752 4.58823 1.12397 2.85136 2.86209C1.11448 4.60021 0.0979304 6.93004 0.00507771 9.38548C-0.087775 11.8409 0.749919 14.2409 2.35057 16.1052C3.95121 17.9695 6.19677 19.1607 8.63798 19.4405C11.0792 19.7203 13.536 19.068 15.517 17.6141H15.5155C15.5605 17.6741 15.6085 17.7311 15.6625 17.7866L21.4375 23.5616C21.7187 23.8431 22.1003 24.0013 22.4982 24.0014C22.8961 24.0016 23.2777 23.8436 23.5592 23.5624C23.8407 23.2811 23.9989 22.8996 23.999 22.5017C23.9991 22.1038 23.8412 21.7221 23.56 21.4406L17.785 15.6656C17.7313 15.6113 17.6737 15.5612 17.6125 15.5156V15.5171ZM17.9995 9.75113C17.9995 10.8345 17.7861 11.9073 17.3715 12.9083C16.9569 13.9092 16.3492 14.8187 15.5831 15.5848C14.817 16.3508 13.9075 16.9585 12.9066 17.3731C11.9057 17.7877 10.8329 18.0011 9.74945 18.0011C8.66605 18.0011 7.59325 17.7877 6.59232 17.3731C5.59138 16.9585 4.68191 16.3508 3.91582 15.5848C3.14974 14.8187 2.54205 13.9092 2.12745 12.9083C1.71285 11.9073 1.49945 10.8345 1.49945 9.75113C1.49945 7.56309 2.36865 5.46467 3.91582 3.9175C5.463 2.37032 7.56142 1.50113 9.74945 1.50113C11.9375 1.50113 14.0359 2.37032 15.5831 3.9175C17.1303 5.46467 17.9995 7.56309 17.9995 9.75113Z" fill="#3E56A1"/>
</svg>
