<svg width="30" height="44" xmlns="http://www.w3.org/2000/svg"><g fill="none"><path d="M15.18.001C6.815-.099 0 6.721 0 15.146 0 28.21 9.702 39.463 13.5 43.369a2.072 2.072 0 002.989-.01c3.72-3.88 13.16-14.933 13.505-27.506C30.226 7.369 23.587.1 15.181 0" fill="#333"/><path d="M23 8c-1.404 0-10.39-.071-12.503 1.498-1.804 1.339-2.985 3.397-3.256 5.675-.105.451-.178.91-.217 1.371 0 .152 0 .304-.024.456v4.333c3.74-6.17 9.374-10.865 16-13.332z" fill="#FFF"/><path d="M7.889 23.992h4.247s5.185.204 7.438-1.477c1.77-1.32 2.928-3.356 3.19-5.61a9.46 9.46 0 00.212-1.352c0-.15 0-.3.024-.454V8C13.56 13.36 9.572 19.98 7.889 23.992z" fill="#8CC541"/></g></svg>